<svg width="400" height="106" viewBox="0 0 400 106" fill="none" xmlns="http://www.w3.org/2000/svg">
<path d="M201 54.0824C200.76 54.0824 200.522 54.035 200.3 53.9431C200.078 53.8511 199.876 53.7163 199.706 53.5464C199.536 53.3764 199.401 53.1747 199.309 52.9527C199.217 52.7307 199.17 52.4927 199.17 52.2524V42.7224C199.17 42.4825 199.217 42.245 199.309 42.0236C199.402 41.8021 199.536 41.601 199.707 41.4319C199.877 41.2628 200.078 41.1289 200.3 41.038C200.522 40.9472 200.76 40.9011 201 40.9024H228.73C228.97 40.9011 229.208 40.9472 229.429 41.038C229.651 41.1289 229.853 41.2628 230.023 41.4319C230.193 41.601 230.328 41.8021 230.42 42.0236C230.513 42.245 230.56 42.4825 230.56 42.7224V52.2524C230.56 52.7377 230.367 53.2032 230.024 53.5464C229.681 53.8896 229.215 54.0824 228.73 54.0824H201Z" fill="#416E33"/>
<path d="M53.12 7.75C53.3598 7.75 53.5973 7.7974 53.8188 7.88949C54.0403 7.98158 54.2414 8.11653 54.4105 8.2866C54.5796 8.45666 54.7135 8.65848 54.8043 8.88044C54.8952 9.10241 54.9413 9.34015 54.94 9.58V20.05C54.9413 20.2898 54.8952 20.5276 54.8043 20.7496C54.7135 20.9715 54.5796 21.1733 54.4105 21.3434C54.2414 21.5135 54.0403 21.6484 53.8188 21.7405C53.5973 21.8326 53.3598 21.88 53.12 21.88C40 21.88 37.51 36 34.6 52.4C31.07 72.22 27.06 94.7 1.83 94.7C1.34465 94.7 0.879186 94.5072 0.535995 94.164C0.192803 93.8208 0 93.3553 0 92.87L0 81.87C0 81.3847 0.192803 80.9192 0.535995 80.576C0.879186 80.2328 1.34465 80.04 1.83 80.04C14.73 80.04 17.07 66.21 19.83 50.19C23.15 30.31 27 7.75 53.11 7.75H53.12Z" fill="#416E33"/>
<path d="M96.0899 22.0019C99.0899 24.2219 100.58 27.5019 100.58 31.7419V82.7819C100.58 87.0219 99.0699 90.3119 96.1099 92.5719C93.1587 94.7579 89.5614 95.8948 85.8899 95.8019C82.6519 95.8936 79.4914 94.8021 76.9999 92.7319V103.852C76.9999 104.337 76.8071 104.803 76.4639 105.146C76.1207 105.489 75.6553 105.682 75.1699 105.682H63.7499C63.5101 105.682 63.2726 105.634 63.0511 105.542C62.8297 105.45 62.6286 105.315 62.4595 105.145C62.2903 104.975 62.1565 104.773 62.0656 104.551C61.9747 104.329 61.9286 104.092 61.9299 103.852V21.8519C61.926 21.6103 61.9701 21.3704 62.0598 21.1462C62.1494 20.9219 62.2829 20.7177 62.4523 20.5455C62.6217 20.3733 62.8237 20.2365 63.0465 20.1432C63.2692 20.0499 63.5084 20.0018 63.7499 20.0019H75.1799C75.4203 20.0032 75.658 20.0518 75.8795 20.145C76.101 20.2382 76.302 20.3741 76.471 20.5449C76.64 20.7158 76.7737 20.9182 76.8645 21.1408C76.9552 21.3633 77.0013 21.6015 76.9999 21.8419V21.8919C79.4879 19.8222 82.645 18.7308 85.8799 18.8219C89.5407 18.7281 93.1299 19.846 96.0899 22.0019ZM85.6099 79.3319V35.0519C85.643 34.6348 85.5337 34.2188 85.2999 33.8719C85.0123 33.51 84.651 33.2134 84.2399 33.0019L84.0899 32.9219C83.739 32.6924 83.3438 32.5391 82.9299 32.4719C82.3727 32.401 81.8117 32.3643 81.2499 32.3619C80.8579 32.3718 80.467 32.4086 80.0799 32.4719C79.5401 32.5428 79.0055 32.6497 78.4799 32.7919C78.0376 32.9499 77.6226 33.176 77.2499 33.4619C77.1499 33.5319 77.0099 33.6319 77.0099 34.1119V80.4019C76.9812 80.7579 77.0805 81.1125 77.2899 81.4019C77.564 81.7149 77.9061 81.9612 78.2899 82.1219C78.3827 82.1591 78.4729 82.2025 78.5599 82.2519C78.9369 82.4629 79.3455 82.6115 79.7699 82.6919C80.2077 82.7826 80.6529 82.8328 81.0999 82.8419C81.648 82.8321 82.1926 82.7514 82.7199 82.6019C83.2826 82.4801 83.8248 82.2781 84.3299 82.0019C84.7135 81.7485 85.0294 81.4052 85.2499 81.0019C85.5043 80.5043 85.6282 79.9503 85.6099 79.3919V79.3319Z" fill="#416E33"/>
<path d="M143.66 26.6716C144.933 28.7175 145.577 31.0928 145.51 33.5016V81.2316C145.562 83.6185 144.923 85.9696 143.67 88.0016C142.512 89.8393 140.958 91.3941 139.12 92.5516C137.234 93.7097 135.164 94.5382 133 95.0016C128.577 96.0149 123.983 96.0149 119.56 95.0016C117.388 94.5124 115.311 93.6714 113.41 92.5116C111.554 91.3732 109.979 89.8317 108.8 88.0016C107.565 85.9635 106.94 83.614 107 81.2316V33.5016C106.932 31.0926 107.575 28.717 108.85 26.6716C110.04 24.8519 111.605 23.3074 113.44 22.1416C115.333 20.9371 117.42 20.0708 119.61 19.5816C124.033 18.5718 128.627 18.5718 133.05 19.5816C135.231 20.0678 137.308 20.9417 139.18 22.1616C140.982 23.3335 142.518 24.8699 143.69 26.6716H143.66ZM130.66 32.8316H121.94V81.8316H130.66V32.8316Z" fill="#416E33"/>
<path d="M194.56 66.6691C194.801 66.6677 195.039 66.7142 195.262 66.8057C195.484 66.8972 195.687 67.0319 195.857 67.2021C196.027 67.3723 196.162 67.5746 196.253 67.7972C196.345 68.0198 196.391 68.2584 196.39 68.4991V81.3491C196.444 83.6784 195.859 85.9781 194.7 87.9991C193.608 89.823 192.109 91.3699 190.32 92.5191C188.479 93.6944 186.449 94.5435 184.32 95.0291C182.133 95.5351 179.895 95.7901 177.65 95.7891C175.461 95.7894 173.279 95.531 171.15 95.0191C169.064 94.5364 167.071 93.7156 165.25 92.5891C163.447 91.4676 161.927 89.9447 160.81 88.1391C159.605 86.1666 158.991 83.89 159.04 81.5791V34.1391H150.04C149.555 34.1391 149.089 33.9463 148.746 33.6031C148.403 33.2599 148.21 32.7944 148.21 32.3091V21.8391C148.209 21.5971 148.255 21.3572 148.347 21.1334C148.439 20.9095 148.575 20.7062 148.746 20.535C148.917 20.3639 149.12 20.2284 149.344 20.1364C149.568 20.0444 149.808 19.9977 150.05 19.9991H159.05V16.9991C159.048 16.546 159.215 16.1084 159.518 15.7718C159.821 15.4352 160.239 15.2239 160.69 15.1791C162.614 14.9756 164.438 14.2183 165.94 12.9991C166.671 12.4066 167.273 11.6705 167.708 10.8363C168.143 10.0021 168.402 9.08751 168.47 8.14906C168.524 7.70621 168.737 7.29819 169.07 7.00171C169.404 6.70523 169.834 6.5407 170.28 6.53906H172.19C172.431 6.54035 172.669 6.58938 172.89 6.6833C173.112 6.77723 173.313 6.91418 173.481 7.08624C173.649 7.2583 173.782 7.46204 173.871 7.68568C173.96 7.90931 174.004 8.14838 174 8.38906V19.9991H190.75C190.99 19.9991 191.227 20.0465 191.449 20.1386C191.67 20.2306 191.871 20.3656 192.04 20.5357C192.21 20.7057 192.343 20.9075 192.434 21.1295C192.525 21.3515 192.571 21.5892 192.57 21.8291V32.3091C192.571 32.5489 192.525 32.7866 192.434 33.0086C192.343 33.2306 192.21 33.4324 192.04 33.6025C191.871 33.7725 191.67 33.9075 191.449 33.9996C191.227 34.0917 190.99 34.1391 190.75 34.1391H174V81.9991C174.099 82.0118 174.196 82.0352 174.29 82.0691C174.29 82.0691 174.54 82.1491 175.45 82.3291C175.99 82.3291 176.45 82.3291 176.91 82.3991H177.64H178.44C178.91 82.3991 179.44 82.3391 179.95 82.3291C180.303 82.2624 180.733 82.1624 181.24 82.0291H181.29V68.4991C181.29 68.0137 181.483 67.5482 181.826 67.2051C182.169 66.8619 182.635 66.6691 183.12 66.6691H194.56Z" fill="#416E33"/>
<path d="M325.27 51.4314C325.27 60.2307 322.661 68.8324 317.772 76.1487C312.884 83.4651 305.935 89.1675 297.806 92.5348C289.676 95.9021 280.731 96.7832 272.1 95.0665C263.47 93.3499 255.543 89.1126 249.321 82.8906C243.099 76.6685 238.862 68.7412 237.145 60.111C235.428 51.4808 236.309 42.5353 239.677 34.4058C243.044 26.2763 248.746 19.3279 256.063 14.4393C263.379 9.5507 271.981 6.94141 280.78 6.94141C292.576 6.952 303.886 11.6427 312.228 19.9839C320.569 28.3251 325.259 39.6352 325.27 51.4314ZM310.65 51.4314C310.652 45.5233 308.902 39.7472 305.621 34.8338C302.34 29.9204 297.676 26.0903 292.218 23.828C286.76 21.5657 280.754 20.9727 274.959 22.1241C269.164 23.2755 263.841 26.1196 259.662 30.2966C255.484 34.4736 252.638 39.7959 251.485 45.5904C250.331 51.3849 250.922 57.3912 253.183 62.8498C255.443 68.3085 259.272 72.9741 264.184 76.2567C269.096 79.5393 274.872 81.2914 280.78 81.2914C288.698 81.2835 296.289 78.1353 301.889 72.5375C307.489 66.9396 310.639 59.3493 310.65 51.4314Z" fill="#416E33"/>
<path d="M372.18 9.58V92.78C372.18 93.2653 371.987 93.7308 371.644 94.074C371.301 94.4172 370.836 94.61 370.35 94.61H359.52C359.122 94.6116 358.734 94.4823 358.416 94.242C358.098 94.0018 357.867 93.6638 357.76 93.28L346.59 54.35V92.78C346.59 93.2653 346.397 93.7308 346.054 94.074C345.711 94.4172 345.246 94.61 344.76 94.61H334.28C333.795 94.61 333.329 94.4172 332.986 94.074C332.643 93.7308 332.45 93.2653 332.45 92.78V9.58C332.45 9.09465 332.643 8.62919 332.986 8.28599C333.329 7.9428 333.795 7.75 334.28 7.75H345.59C345.988 7.75008 346.376 7.87998 346.693 8.11999C347.011 8.36001 347.241 8.69705 347.35 9.08L358.4 48V9.58C358.4 9.09465 358.593 8.62919 358.936 8.28599C359.279 7.9428 359.745 7.75 360.23 7.75H370.35C370.591 7.75 370.828 7.79733 371.051 7.8893C371.273 7.98127 371.474 8.11606 371.644 8.28599C371.814 8.45593 371.949 8.65766 372.041 8.87969C372.133 9.10172 372.18 9.33968 372.18 9.58Z" fill="#416E33"/>
<path d="M389.65 21.0006C388.26 21.01 386.881 20.7484 385.59 20.2306C384.352 19.7291 383.226 18.9845 382.28 18.0406C381.317 17.0965 380.561 15.9625 380.06 14.7106C379.523 13.3834 379.254 11.9625 379.27 10.5306C379.246 9.10358 379.493 7.68493 380 6.35064C380.515 5.09746 381.273 3.95881 382.23 3.00064C383.176 2.0466 384.305 1.29471 385.55 0.790643C388.178 -0.263548 391.112 -0.263548 393.74 0.790643C394.982 1.30146 396.108 2.05701 397.051 3.01224C397.994 3.96747 398.735 5.10283 399.23 6.35064C399.752 7.68539 400.013 9.10764 400 10.5406C400.016 11.9725 399.748 13.3934 399.21 14.7206C398.709 15.97 397.957 17.1033 397 18.0506C396.053 18.9932 394.928 19.7377 393.69 20.2406C392.407 20.7569 391.034 21.0152 389.65 21.0006ZM389.65 19.3306C390.776 19.3443 391.894 19.1318 392.937 18.7058C393.979 18.2798 394.926 17.649 395.72 16.8506C396.506 16.0626 397.119 15.1191 397.52 14.0806C397.942 12.9555 398.152 11.7622 398.14 10.5606C398.158 8.96795 397.766 7.39746 397 6.00064C396.303 4.70161 395.266 3.61632 394 2.86064C392.678 2.08004 391.165 1.68191 389.63 1.71064C388.461 1.69755 387.3 1.92209 386.22 2.37064C385.202 2.79891 384.28 3.42811 383.51 4.22064C382.752 5.02533 382.158 5.96946 381.76 7.00064C381.331 8.13101 381.118 9.33167 381.13 10.5406C381.1 12.1214 381.483 13.6827 382.24 15.0706C382.962 16.3637 384.019 17.4381 385.3 18.1806C386.618 18.9559 388.122 19.357 389.65 19.3406V19.3306ZM386.19 16.1606V4.56064H389.87C391.024 4.51345 392.158 4.86677 393.08 5.56064C393.475 5.86058 393.792 6.25013 394.006 6.69704C394.22 7.14395 394.324 7.63538 394.31 8.13064C394.322 8.79745 394.141 9.45348 393.79 10.0206C393.431 10.574 392.926 11.0171 392.33 11.3006C391.65 11.6111 390.908 11.7649 390.16 11.7506H388.05V16.1906L386.19 16.1606ZM389.93 10.1606C390.598 10.1986 391.26 10.0121 391.81 9.63064C392.029 9.45946 392.204 9.23868 392.32 8.98654C392.437 8.73441 392.492 8.45816 392.48 8.18064C392.49 7.9013 392.433 7.62368 392.313 7.37129C392.192 7.11889 392.013 6.89914 391.79 6.73064C391.246 6.35349 390.592 6.16713 389.93 6.20064H388.05V10.2006L389.93 10.1606ZM392.29 16.1606L389.29 10.9406H391.29L394.49 16.2006L392.29 16.1606Z" fill="#416E33"/>
</svg>
